<svg data-v-0dd9719b="" version="1.0" xmlns="http://www.w3.org/2000/svg" xmlns:xlink="http://www.w3.org/1999/xlink" width="100%" height="100%" viewBox="0 0 340.000000 250.000000" preserveAspectRatio="xMidYMid meet" color-interpolation-filters="sRGB" style="margin: auto;"> <rect data-v-0dd9719b="" x="0" y="0" width="100%" height="100%" fill="#fff" fill-opacity="1" class="background"></rect> <rect data-v-0dd9719b="" x="0" y="0" width="100%" height="100%" fill="url(#watermark)" fill-opacity="1" class="watermarklayer"></rect> <g data-v-0dd9719b="" fill="#333" class="icon-text-wrapper icon-svg-group iconsvg" transform="translate(49.7449951171875,94.99699974060059)"><g class="iconsvg-imagesvg" transform="translate(0,0)"><g><rect fill="#333" fill-opacity="0" stroke-width="2" x="0" y="0" width="60" height="60.006000600060005" class="image-rect"></rect> <svg x="0" y="0" width="60" height="60.006000600060005" filtersec="colorsb2957446975" class="image-svg-svg primary" style="overflow: visible;"><svg xmlns="http://www.w3.org/2000/svg" viewBox="0.01964184083044529 -0.03000464104115963 99.9903564453125 100.00001525878906"><path d="M75.74 61.83H62.5a17.53 17.53 0 0 1-26.75-1.37 2.57 2.57 0 0 0 .3-1.17 2.53 2.53 0 1 0-2.53 2.53 2.73 2.73 0 0 0 .5 0A19.68 19.68 0 0 0 63.41 64h9.45a26.79 26.79 0 1 1 0-28h-9.1a19.69 19.69 0 0 0-30.19 2.5 2.53 2.53 0 1 0 2.48 2.5 2.47 2.47 0 0 0-.53-1.53 17.53 17.53 0 0 1 27.29-1.33H98.6a50 50 0 1 0 0 23.66zm-43.45-2.54a1.23 1.23 0 1 1 1.23 1.23 1.24 1.24 0 0 1-1.23-1.23zM34.75 41a1.23 1.23 0 1 1-1.23-1.23A1.23 1.23 0 0 1 34.75 41zM83.6 73.42a3.7 3.7 0 0 1-.95-.14 40 40 0 1 1 0-46.56 3.7 3.7 0 0 1 .95-.14 3.86 3.86 0 1 1-3.27 1.86 37.14 37.14 0 1 0 0 43.12 3.83 3.83 0 1 1 3.27 1.86z" fill="#0080df"></path><path d="M99.87 46.27H58.16a9 9 0 1 0 0 7.46h41.71c.09-1.23.14-2.47.14-3.73s-.01-2.5-.14-3.73zM50 53.73A3.73 3.73 0 1 1 53.73 50 3.73 3.73 0 0 1 50 53.73z" fill="#f6911e"></path><path d="M81.74 30.42a1.87 1.87 0 1 0 1.86-1.87 1.87 1.87 0 0 0-1.86 1.87zM83.6 67.71a1.87 1.87 0 1 0 1.87 1.87 1.87 1.87 0 0 0-1.87-1.87z" fill="#0080df"></path></svg></svg> <!----></g></g> <g transform="translate(67,1.9667491912841797)"><g data-gra="path-name" fill-rule="" class="tp-name iconsvg-namesvg" transform="translate(0,0)"><g transform="scale(1)"><g><path d="M15.71 3.38L15.71 3.38Q13.54 3.38 13.05 1.98L13.05 1.98Q12.69 0.94 13.46 0.4L13.46 0.4Q14.13-0.09 15.43-0.04L15.43-0.04Q18.63 0.04 19.66-0.04L19.66-0.04Q20.29-0.09 20.52-0.27 20.75-0.45 20.75-0.94L20.75-0.94 20.75-17.46 5.22-17.46Q3.65-17.46 3.65-19.08L3.65-19.08Q3.65-20.65 5.22-20.65L5.22-20.65 39.96-20.65Q41.53-20.65 41.53-19.08L41.53-19.08Q41.53-17.46 39.96-17.46L39.96-17.46 24.16-17.46 24.16-0.9Q24.16 0.77 23.67 1.6 23.18 2.43 21.96 2.83L21.96 2.83Q20.34 3.38 15.71 3.38ZM6.57-23.49L6.57-23.49Q4.95-23.49 4.95-25.11L4.95-25.11 4.95-30.15Q4.95-31.32 5.67-32.04 6.39-32.76 7.56-32.76L7.56-32.76 20.7-32.76 20.7-35.95Q20.7-37.66 22.45-37.66L22.45-37.66Q24.16-37.66 24.16-35.95L24.16-35.95 24.16-32.76 37.89-32.76Q39.06-32.76 39.78-32.04 40.5-31.32 40.5-30.15L40.5-30.15 40.5-25.2Q40.5-23.49 38.79-23.49L38.79-23.49Q37.08-23.49 37.08-25.2L37.08-25.2 37.08-28.62Q37.08-29.56 36.13-29.56L36.13-29.56 9.13-29.56Q8.19-29.56 8.19-28.62L8.19-28.62 8.19-25.11Q8.19-23.49 6.57-23.49ZM65.3 2.97Q63.86 3.55 62.95 2.43L62.95 2.43Q61.65 0.77 63.9-0.09L63.9-0.09Q68.85-2.11 72.41-5.08L72.41-5.08Q68-10.04 65.3-17.14L65.3-17.14 64.22-17.14Q63.77-4.86 59.45 1.98L59.45 1.98Q58.41 3.42 57.15 2.61L57.15 2.61Q55.71 1.71 56.88 0.04L56.88 0.04Q59.4-4 60.39-9.99L60.39-9.99Q61.02-13.99 61.02-19.84L61.02-19.84 61.02-28.57Q61.02-29.74 61.74-30.46 62.46-31.18 63.63-31.18L63.63-31.18 71.78-31.18 71.78-36.05Q71.78-37.66 73.39-37.66L73.39-37.66Q75.02-37.66 75.02-36.05L75.02-36.05 75.02-31.18 84.69-31.18Q86.09-31.18 86.63-30.35 87.16-29.52 86.72-28.04L86.72-28.04Q85.59-24.7 84.38-22.5L84.38-22.5Q83.92-21.6 82.66-22L82.66-22Q81.13-22.5 81.72-23.76L81.72-23.76Q82.44-25.47 83.38-28.04L83.38-28.04 75.02-28.04 75.02-20.16 81.63-20.16Q82.98-20.16 83.54-19.3 84.1-18.45 83.66-16.83L83.66-16.83Q81.5-10.04 77.04-5.08L77.04-5.08Q80.87-1.89 85.68-0.18L85.68-0.18Q88.16 0.58 86.85 2.34L86.85 2.34Q86 3.51 84.42 2.92L84.42 2.92Q78.93 0.85 74.7-2.83L74.7-2.83Q70.61 0.72 65.3 2.97L65.3 2.97ZM51.88 1.35Q51.08 2.83 49.55 1.75L49.55 1.75Q48.15 0.81 48.91-0.45L48.91-0.45Q49.95-2.25 51.75-5.8L51.75-5.8Q53.41-9 54.72-11.92L54.72-11.92Q55.44-13.59 56.92-12.42L56.92-12.42Q57.96-11.56 57.47-10.44L57.47-10.44Q54.67-4 51.88 1.35L51.88 1.35ZM74.66-7.25L74.66-7.25Q78.53-11.38 80.5-17.14L80.5-17.14 68.44-17.14Q70.61-11.61 74.66-7.25ZM54.88-18.52Q54.36-18.4 53.64-18.95L53.64-18.95Q52.47-19.71 51.39-20.38L51.39-20.38Q51.16-20.52 50.72-20.75L50.72-20.75Q49.23-21.64 48.51-22L48.51-22Q47.07-22.81 48.15-24.16L48.15-24.16Q48.96-25.2 50.09-24.66L50.09-24.66Q53.23-23.13 55.75-21.46L55.75-21.46Q56.38-21.02 56.38-20.52L56.38-20.52Q56.38-20.07 55.89-19.39L55.89-19.39Q55.39-18.63 54.88-18.52ZM64.26-27.09L64.26-20.16 71.78-20.16 71.78-28.04 65.2-28.04Q64.26-28.04 64.26-27.09L64.26-27.09ZM57.08-30.22Q56.56-30.11 55.89-30.69L55.89-30.69Q54.77-31.5 53.64-32.27L53.64-32.27Q52.56-33.03 50.89-34.02L50.89-34.02Q49.45-34.83 50.53-36.18L50.53-36.18Q51.34-37.21 52.47-36.63L52.47-36.63Q55.89-34.78 58.05-33.16L58.05-33.16Q58.63-32.67 58.63-32.22L58.63-32.22Q58.59-31.77 58.14-31.09L58.14-31.09Q57.6-30.33 57.08-30.22ZM112.36 3.46L112.36 3.46Q110.11 3.46 109.62 2.11L109.62 2.11Q109.26 1.13 110.03 0.63L110.03 0.63Q110.66 0.18 111.91 0.22L111.91 0.22Q114.03 0.22 116.1 0.22L116.1 0.22Q116.78 0.18 117.05-0.04 117.31-0.27 117.31-0.85L117.31-0.85 117.31-17.23 94.59-17.23Q92.97-17.23 92.97-18.9L92.97-18.9Q92.97-20.52 94.59-20.52L94.59-20.52 117.31-20.52 117.31-25.29Q117.31-26.95 118.98-26.95L118.98-26.95Q120.64-26.95 120.64-25.29L120.64-25.29 120.64-20.52 130.45-20.52Q132.07-20.52 132.07-18.9L132.07-18.9Q132.07-17.23 130.45-17.23L130.45-17.23 120.64-17.23 120.64-0.85Q120.64 0.81 120.17 1.67 119.7 2.52 118.58 2.92L118.58 2.92Q117.13 3.38 112.36 3.46ZM107.14-4.81Q105.66-3.73 104.85-5.17L104.85-5.17Q104-6.57 102.6-8.41L102.6-8.41Q101.3-10.13 99.54-12.06L99.54-12.06Q98.37-13.28 99.86-14.22L99.86-14.22Q100.98-14.94 101.88-14.04L101.88-14.04Q105.39-10.62 107.78-6.75L107.78-6.75Q108.13-6.12 107.95-5.67L107.95-5.67Q107.82-5.31 107.14-4.81L107.14-4.81ZM95.67-23.18L95.67-23.18Q94-23.18 94-24.84L94-24.84 94-29.97Q94-31.14 94.72-31.86 95.44-32.58 96.61-32.58L96.61-32.58 110.66-32.58 110.66-35.95Q110.66-37.66 112.41-37.66L112.41-37.66Q114.12-37.66 114.12-35.95L114.12-35.95 114.12-32.58 128.3-32.58Q129.47-32.58 130.19-31.86 130.91-31.14 130.91-29.97L130.91-29.97 130.91-24.88Q130.91-23.18 129.19-23.18L129.19-23.18Q127.44-23.18 127.44-24.88L127.44-24.88 127.44-28.53Q127.44-29.47 126.5-29.47L126.5-29.47 98.28-29.47Q97.33-29.47 97.33-28.53L97.33-28.53 97.33-24.84Q97.33-23.18 95.67-23.18ZM175.77 2.38L139.28 2.38Q137.88 2.38 137.88 0.99L137.88 0.99Q137.88-0.45 139.28-0.45L139.28-0.45 155.79-0.45 155.79-4.37 144.13-4.37Q142.78-4.37 142.78-5.76L142.78-5.76Q142.78-7.11 144.13-7.11L144.13-7.11 155.79-7.11 155.79-10.98 142.29-10.98Q140.9-10.98 140.9-12.42L140.9-12.42Q140.9-13.81 142.29-13.81L142.29-13.81 173.03-13.81Q174.42-13.81 174.42-12.42L174.42-12.42Q174.42-10.98 173.03-10.98L173.03-10.98 159.12-10.98 159.12-7.11 170.95-7.11Q172.31-7.11 172.31-5.76L172.31-5.76Q172.31-4.37 170.95-4.37L170.95-4.37 159.12-4.37 159.12-0.45 175.77-0.45Q177.16-0.45 177.16 0.99L177.16 0.99Q177.16 2.38 175.77 2.38L175.77 2.38ZM158.44-15.97Q157.23-15.03 156.33-16.02L156.33-16.02Q155.75-16.7 155.79-17.17 155.84-17.64 156.51-18.22L156.51-18.22Q158.85-20.52 159.93-24.39L159.93-24.39Q160.78-27.54 161.06-32.94L161.06-32.94Q161.19-36.09 163.71-36.09L163.71-36.09 173.84-36.09Q175.14-36.09 175.72-35.05L175.72-35.05Q176.4-33.88 176.31-31L176.31-31Q176-24.16 175.59-21.11L175.59-21.11Q175.19-18.22 174.47-17.28L174.47-17.28Q173.61-16.2 171.9-16.06L171.9-16.06Q170.24-15.97 168.73-16.04 167.22-16.11 166.95-17.14L166.95-17.14Q166.45-18.77 168.8-18.59L168.8-18.59Q169.56-18.54 170.5-18.54L170.5-18.54Q171.45-18.5 171.85-19.08L171.85-19.08Q172.39-19.71 172.71-22.5L172.71-22.5 162.5-22.5Q161.15-18.4 158.44-15.97L158.44-15.97ZM152.59-17.77L145.03-17.77Q142.34-17.77 141.39-18.86L141.39-18.86Q140.44-19.84 140.44-22.54L140.44-22.54 140.44-30.06 138.56-30.06Q137.12-30.06 137.12-31.5 137.12-32.94 138.56-32.94L138.56-32.94 146.29-32.94 146.29-36.09Q146.29-37.62 147.87-37.62L147.87-37.62Q149.4-37.62 149.4-36.09L149.4-36.09 149.4-32.94 156.91-32.94Q158.35-32.94 158.35-31.5 158.35-30.06 156.91-30.06L156.91-30.06 143.46-30.06 143.46-22.5Q143.46-21.46 143.78-21.06 144.09-20.65 144.99-20.65L144.99-20.65 152.55-20.65Q153.09-20.65 154.44-20.75L154.44-20.75Q155.88-20.93 156.1-19.3L156.1-19.3Q156.19-18.63 156.01-18.31L156.01-18.31Q155.84-17.95 155.25-17.86L155.25-17.86Q154.49-17.77 152.59-17.77L152.59-17.77ZM163.13-24.93L163.13-24.93 172.94-24.93Q173.03-25.88 173.12-28.08L173.12-28.08 163.66-28.08Q163.44-26.37 163.13-24.93ZM163.94-30.42L163.94-30.42 173.2-30.42 173.3-32.63Q173.38-33.57 172.39-33.57L172.39-33.57 164.16-33.57Q164.12-32.49 163.94-30.42Z" transform="translate(-3.6500000953674316, 37.65999984741211)"></path></g> <!----> <!----> <!----> <!----> <!----> <!----> <!----></g></g> <g data-gra="path-slogan" fill-rule="" class="tp-slogan iconsvg-slogansvg" fill="#333" transform="translate(5,47.119998931884766)"><rect x="0" height="1" y="3.9750003814697266" width="19.225006103515625"></rect> <rect height="1" y="3.9750003814697266" width="19.225006103515625" x="144.28500366210938"></rect> <g transform="translate(22.225006103515625,0)"><g transform="scale(1)"><path d="M2.30-8.58L6.61-1.64L6.61-8.58L7.73-8.58L7.73 0L6.42 0L2.06-6.94L2.02-6.94L2.02 0L0.89 0L0.89-8.58L2.30-8.58ZM9.70-8.58L10.88-8.58L10.88 0L9.70 0L9.70-8.58ZM14.25-8.58L18.56-1.64L18.56-8.58L19.69-8.58L19.69 0L18.38 0L14.02-6.94L13.97-6.94L13.97 0L12.84 0L12.84-8.58L14.25-8.58ZM27.89-3.61L25.27-3.61L25.27-4.59L29.02-4.59L29.02 0L28.27 0L27.98-1.08Q27 0.09 25.17 0.14L25.17 0.14Q23.44 0.14 22.50-0.75L22.50-0.75Q21.09-2.06 21.14-4.36L21.14-4.36Q21.47-8.63 25.22-8.81L25.22-8.81Q28.41-8.63 28.88-6L28.88-6L27.75-6Q27.28-7.78 25.17-7.83L25.17-7.83Q22.50-7.64 22.36-4.31L22.36-4.31Q22.36-0.75 25.22-0.75L25.22-0.75Q26.25-0.75 27-1.31L27-1.31Q27.94-2.06 27.89-3.61L27.89-3.61ZM34.03-7.64L31.97-7.64L31.97-4.97L34.03-4.97Q35.86-4.92 35.81-6.38L35.81-6.38Q35.81-7.64 34.03-7.64L34.03-7.64ZM34.50 0L30.80 0L30.80-8.58L34.59-8.58Q36.89-8.48 36.98-6.42L36.98-6.42Q36.98-5.16 35.86-4.64L35.86-4.64Q37.45-4.08 37.45-2.53L37.45-2.53Q37.31-0.09 34.50 0L34.50 0ZM34.22-3.98L31.97-3.98L31.97-0.98L34.45-0.98Q36.23-1.03 36.28-2.53L36.28-2.53Q36.28-3.98 34.22-3.98L34.22-3.98ZM45.56-4.27L45.56-4.27Q45.38-7.64 42.56-7.83L42.56-7.83Q39.70-7.69 39.56-4.27L39.56-4.27Q39.70-0.94 42.56-0.80L42.56-0.80Q45.38-0.98 45.56-4.27ZM46.73-4.27L46.73-4.27Q46.45 0 42.56 0.14L42.56 0.14Q38.63 0 38.34-4.27L38.34-4.27Q38.58-8.72 42.56-8.81L42.56-8.81Q46.45-8.67 46.73-4.27ZM56.20-7.13L56.16-7.13L54.19 0L52.97 0L50.72-8.58L51.94-8.58L53.58-1.59L53.63-1.59L55.55-8.58L56.81-8.58L58.73-1.59L58.78-1.59L60.38-8.58L61.64-8.58L59.39 0L58.17 0L56.20-7.13ZM68.39 0L67.55-2.48L64.08-2.48L63.19 0L62.02 0L65.25-8.58L66.56-8.58L69.66 0L68.39 0ZM65.81-7.31L64.45-3.52L67.13-3.52L65.86-7.31L65.81-7.31ZM72.89-7.59L69.98-7.59L69.98-8.58L76.92-8.58L76.92-7.59L74.02-7.59L74.02 0L72.89 0L72.89-7.59ZM85.13-6.05L85.13-6.05L84-6.05Q83.58-7.78 81.61-7.83L81.61-7.83Q78.89-7.69 78.80-4.36L78.80-4.36Q78.80-0.80 81.66-0.80L81.66-0.80Q83.63-0.84 84.09-3.19L84.09-3.19L85.22-3.19Q84.70 0.05 81.42 0.14L81.42 0.14Q77.67 0 77.58-4.31L77.58-4.31Q77.77-8.63 81.61-8.81L81.61-8.81Q84.66-8.72 85.13-6.05ZM87.75-5.06L92.25-5.06L92.25-8.58L93.42-8.58L93.42 0L92.25 0L92.25-3.98L87.75-3.98L87.75 0L86.58 0L86.58-8.58L87.75-8.58L87.75-5.06ZM103.45-8.58L103.45 0L102.33 0L102.33-5.06Q102.33-5.77 102.33-7.22L102.33-7.22L99.89 0L98.72 0L96.33-7.22L96.28-7.22Q96.28-6.70 96.33-5.67L96.33-5.67Q96.33-5.16 96.33-5.06L96.33-5.06L96.33 0L95.16 0L95.16-8.58L96.84-8.58L99.33-1.31L101.77-8.58L103.45-8.58ZM110.81 0L109.97-2.48L106.50-2.48L105.61 0L104.44 0L107.67-8.58L108.98-8.58L112.08 0L110.81 0ZM108.23-7.31L106.88-3.52L109.55-3.52L108.28-7.31L108.23-7.31ZM114.52-8.58L118.83-1.64L118.83-8.58L119.95-8.58L119.95 0L118.64 0L114.28-6.94L114.23-6.94L114.23 0L113.11 0L113.11-8.58L114.52-8.58Z" transform="translate(-0.890625, 8.8125)"></path></g></g></g></g></g><defs v-gra="od"></defs></svg>